<mxfile host="app.diagrams.net" modified="2021-08-20T22:54:54.054Z" agent="5.0 (Windows NT 10.0; Win64; x64) AppleWebKit/537.36 (KHTML, like Gecko) Chrome/92.0.4515.159 Safari/537.36 Edg/92.0.902.78" etag="ns9nY_2nCwXdB7GhNDNs" version="14.9.8" type="github">
  <diagram id="R2lEEEUBdFMjLlhIrx00" name="Page-1">
    <mxGraphModel dx="1422" dy="1894" grid="1" gridSize="10" guides="1" tooltips="1" connect="1" arrows="1" fold="1" page="1" pageScale="1" pageWidth="850" pageHeight="1100" math="0" shadow="0" extFonts="Permanent Marker^https://fonts.googleapis.com/css?family=Permanent+Marker">
      <root>
        <mxCell id="0" />
        <mxCell id="1" parent="0" />
        <mxCell id="f7ah3ANaxQxOOwYliNl0-4" value="LIVRO" style="whiteSpace=wrap;html=1;align=center;" vertex="1" parent="1">
          <mxGeometry x="370" y="-750" width="100" height="40" as="geometry" />
        </mxCell>
        <mxCell id="f7ah3ANaxQxOOwYliNl0-5" value="ESTOQUE" style="whiteSpace=wrap;html=1;align=center;" vertex="1" parent="1">
          <mxGeometry x="620" y="-750" width="100" height="40" as="geometry" />
        </mxCell>
        <mxCell id="f7ah3ANaxQxOOwYliNl0-6" value="PEDIDO" style="whiteSpace=wrap;html=1;align=center;" vertex="1" parent="1">
          <mxGeometry x="370" y="-510" width="100" height="40" as="geometry" />
        </mxCell>
        <mxCell id="f7ah3ANaxQxOOwYliNl0-7" value="EDITORA" style="whiteSpace=wrap;html=1;align=center;" vertex="1" parent="1">
          <mxGeometry x="100" y="-750" width="100" height="40" as="geometry" />
        </mxCell>
        <mxCell id="f7ah3ANaxQxOOwYliNl0-8" value="CLIENTE" style="whiteSpace=wrap;html=1;align=center;" vertex="1" parent="1">
          <mxGeometry x="370" y="-970" width="100" height="40" as="geometry" />
        </mxCell>
      </root>
    </mxGraphModel>
  </diagram>
</mxfile>
